<svg width="240" height="277" viewBox="0 0 240 277" fill="none" xmlns="http://www.w3.org/2000/svg">
<path d="M13.9595 211.594C6.25663 211.594 0 205.337 0 197.634V75.1896C0 70.2063 2.65671 65.5845 6.97976 63.1008L113.028 1.87066C119.709 -1.98079 128.245 0.298641 132.097 6.97972C135.948 13.6608 133.669 22.1968 126.988 26.0483L27.919 83.254V197.634C27.919 205.337 21.6624 211.594 13.9595 211.594ZM81.069 228.367V113.987L180.122 56.797C186.803 52.9455 189.082 44.4095 185.231 37.7284C181.379 31.0473 172.843 28.7679 166.162 32.6193L60.1297 93.8337C55.8066 96.3332 53.1499 100.939 53.1499 105.923V228.367C53.1499 236.07 59.4066 242.327 67.1095 242.327C74.8123 242.327 81.069 236.07 81.069 228.367ZM133.967 262.92V144.484L212.081 99.3829V141.67L163.789 168.898C159.466 171.334 156.762 175.877 156.683 180.829C156.604 185.781 159.151 190.419 163.396 192.997L216.263 225.144C222.849 229.153 231.448 227.062 235.441 220.475C239.45 213.889 237.359 205.306 230.772 201.297L198.279 181.521L232.926 161.996C237.312 159.528 240.031 154.875 240.031 149.829V75.2053C240.031 70.222 237.375 65.6003 233.052 63.1165C228.729 60.617 223.415 60.617 219.092 63.1165L115.402 122.979C109.963 124.881 106.08 130.069 106.08 136.152V262.92C106.08 270.639 112.336 276.879 120.039 276.879C127.742 276.879 133.999 270.623 133.999 262.92H133.967Z" fill="url(#paint0_linear_1051_3165)"/>
<defs>
<linearGradient id="paint0_linear_1051_3165" x1="120.016" y1="-0.00146484" x2="120.016" y2="276.879" gradientUnits="userSpaceOnUse">
<stop stop-color="#F7B731"/>
<stop offset="0.520733" stop-color="#EB3B5A"/>
<stop offset="0.776042" stop-color="#B74898"/>
<stop offset="1" stop-color="#8854D0"/>
</linearGradient>
</defs>
</svg>
